<svg xmlns="http://www.w3.org/2000/svg" version="1.1" 
 xmlns:xlink="http://www.w3.org/1999/xlink" 
 xmlns:svgjs="http://svgjs.com/svgjs" 
 width="60" height="60" viewBox="-32 -32 64 64" stroke="#888888" stroke-width="1">
 <g fill="#eeeeee" id='C'><path d="M 0 -30 A 30 30 0 0 1 15 -25.98 L 7.5 -12.99 A 15 15 0 0 0 0 -15 Z"></path></g>
 <g fill="#555555" id='C#'><path d="M 15 -25.98 A 30 30 0 0 1 25.98 -15 L 12.99 -7.5 A 15 15 0 0 0 7.5 -12.99 Z"></path></g>
 <g fill="#eeeeee" id='D'><path d="M 25.98 -15 A 30 30 0 0 1 30 0 L 15 0 A 15 15 0 0 0 12.99 -7.5 Z"></path></g>
 <g fill="#555555" id='D#'><path d="M 30 0 A 30 30 0 0 1 25.98 15 L 12.99 7.5 A 15 15 0 0 0 15 0 Z"></path></g>
 <g fill="#eeeeee" id='E'><path d="M 25.98 15 A 30 30 0 0 1 15 25.98 L 7.5 12.99 A 15 15 0 0 0 12.99 7.5 Z"></path></g>
 <g fill="#eeeeee" id='F'><path d="M 15 25.98 A 30 30 0 0 1 0 30 L 0 15 A 15 15 0 0 0 7.5 12.99 Z"></path></g>
 <g fill="#555555" id='F#'><path d="M 0 30 A 30 30 0 0 1 -15 25.98 L -7.5 12.99 A 15 15 0 0 0 0 15 Z"></path></g>
 <g fill="#eeeeee" id='G'><path d="M -15 25.98 A 30 30 0 0 1 -25.98 15 L -12.99 7.5 A 15 15 0 0 0 -7.5 12.99 Z"></path></g>
 <g fill="#555555" id='G#'><path d="M -25.98 15 A 30 30 0 0 1 -30 0 L -15 0 A 15 15 0 0 0 -12.99 7.5 Z"></path></g>
 <g fill="#eeeeee" id='A'><path d="M -30 0 A 30 30 0 0 1 -25.98 -15 L -12.99 -7.5 A 15 15 0 0 0 -15 0 Z"></path></g>
 <g fill="#555555" id='A#'><path d="M -25.98 -15 A 30 30 0 0 1 -15 -25.98 L -7.5 -12.99 A 15 15 0 0 0 -12.99 -7.5 Z"></path></g>
 <g fill="#eeeeee" id='B'><path d="M -15 -25.98 A 30 30 0 0 1 0 -30 L 0 -15 A 15 15 0 0 0 -7.5 -12.99 Z"></path></g>
 </svg>